<svg xmlns="http://www.w3.org/2000/svg" xmlns:xlink="http://www.w3.org/1999/xlink" width="48" height="48" viewBox="0 0 48 48">
    <defs>
        <path id="a" d="M0 .48h23.52V24H0z"/>
    </defs>
    <g fill="none" fill-rule="evenodd">
        <circle cx="24" cy="24" r="22.5" stroke="#FFF" stroke-width="3"/>
        <g transform="translate(12 12)">
            <mask id="b" fill="#fff">
                <use xlink:href="#a"/>
            </mask>
            <path fill="#FFF" d="M11.76.48C8.566.48 8.165.494 6.91.551c-1.252.057-2.106.256-2.854.547-.774.3-1.43.702-2.083 1.356A5.76 5.76 0 0 0 .617 4.537c-.29.748-.49 1.603-.546 2.855C.013 8.646 0 9.046 0 12.24s.013 3.594.07 4.849c.058 1.251.257 2.106.547 2.854.3.774.703 1.43 1.357 2.083a5.758 5.758 0 0 0 2.083 1.357c.748.29 1.602.49 2.854.546 1.254.057 1.655.071 4.849.071s3.594-.014 4.848-.07c1.252-.058 2.107-.257 2.855-.547.773-.3 1.43-.703 2.083-1.357a5.762 5.762 0 0 0 1.356-2.083c.29-.748.49-1.603.547-2.854.057-1.255.07-1.655.07-4.849s-.013-3.594-.07-4.848c-.057-1.252-.256-2.107-.547-2.855a5.76 5.76 0 0 0-1.356-2.083 5.758 5.758 0 0 0-2.083-1.356C18.715.807 17.86.608 16.608.55c-1.254-.057-1.654-.07-4.848-.07m0 2.118c3.14 0 3.512.012 4.752.069 1.146.052 1.769.244 2.183.405a3.64 3.64 0 0 1 1.353.88c.411.41.666.803.88 1.351.16.415.352 1.038.404 2.184.057 1.24.069 1.612.069 4.752 0 3.14-.012 3.512-.069 4.752-.052 1.147-.244 1.77-.405 2.184a3.65 3.65 0 0 1-.88 1.352 3.652 3.652 0 0 1-1.352.88c-.414.16-1.037.352-2.183.405-1.24.056-1.612.068-4.752.068-3.14 0-3.512-.012-4.752-.068-1.147-.053-1.77-.244-2.184-.405a3.652 3.652 0 0 1-1.352-.88 3.656 3.656 0 0 1-.88-1.352c-.16-.415-.352-1.037-.405-2.184-.056-1.24-.068-1.612-.068-4.752 0-3.14.012-3.512.068-4.752.053-1.146.244-1.77.405-2.184.214-.548.469-.94.88-1.352a3.64 3.64 0 0 1 1.352-.88c.415-.16 1.037-.352 2.184-.404 1.24-.057 1.612-.069 4.752-.069" mask="url(#b)"/>
        </g>
        <path fill="#FFF" d="M24 27.895a3.895 3.895 0 1 1 0-7.79 3.895 3.895 0 0 1 0 7.79M24 18a6 6 0 1 0 0 12 6 6 0 0 0 0-12M32 18.5a1.5 1.5 0 1 1-3 0 1.5 1.5 0 0 1 3 0"/>
    </g>
</svg>
