<?xml version="1.0" encoding="utf-8"?>
<!-- Generator: Adobe Illustrator 19.2.1, SVG Export Plug-In . SVG Version: 6.00 Build 0)  -->
<svg version="1.1" id="Layer_1" xmlns="http://www.w3.org/2000/svg" xmlns:xlink="http://www.w3.org/1999/xlink" x="0px" y="0px"
	 viewBox="0 0 500 167" style="enable-background:new 0 0 500 167;" xml:space="preserve">
<style type="text/css">
	.st0{fill:#1D1D1B;}
</style>
<g id="XMLID_29_">
	<path id="XMLID_52_" class="st0" d="M34.9,50.7v26.5l11.7-26.5H57l-11.4,23l12.9,43.1H47.9l-8.4-30.7l-4.6,9.1v21.6h-10V50.7H34.9z
		"/>
	<path id="XMLID_49_" class="st0" d="M83.8,102.3l-2.3,14.6h-9.8l10.8-66.1h12.9l11.5,66.1H96.7l-2.3-14.6
		C94.4,102.3,83.8,102.3,83.8,102.3z M88.9,66.6L85.1,93h7.7L88.9,66.6z"/>
	<path id="XMLID_46_" class="st0" d="M133.6,116.9h-10V50.7h13.9c5.8,0,10,1.5,12.6,4.6s3.9,7.9,3.9,14.5c0,4.3-0.5,7.7-1.5,10.2
		s-2.7,4.7-5.2,6.4l7.7,30.3h-10.6L138.3,89h-4.7L133.6,116.9L133.6,116.9z M136.7,80.1c1.7,0,2.9-0.1,3.7-0.4s1.4-0.9,1.9-1.7
		c0.5-0.8,0.9-1.9,1.2-3.3s0.4-2.9,0.4-4.6c0-1.9-0.2-3.5-0.5-5c-0.4-1.5-0.8-2.6-1.4-3.3c-0.5-0.7-1.2-1.1-1.9-1.3
		c-0.8-0.2-1.9-0.3-3.4-0.3h-3.1v20L136.7,80.1L136.7,80.1z"/>
	<path id="XMLID_44_" class="st0" d="M205.2,116.9V71.2l-9.4,45.7h-4.4l-9.9-45.7v45.7H172V50.7h13.3l8.2,40.3l7.5-40.3h13.4v66.1
		h-9.2V116.9z"/>
	<path id="XMLID_41_" class="st0" d="M243.5,102.3l-2.3,14.6h-9.8l10.8-66.1h12.9l11.5,66.1h-10.2l-2.3-14.6
		C254.1,102.3,243.5,102.3,243.5,102.3z M248.7,66.6L244.9,93h7.7L248.7,66.6z"/>
	<path id="XMLID_38_" class="st0" d="M293.3,116.9h-10V50.7h13.9c5.8,0,10,1.5,12.6,4.6s3.9,7.9,3.9,14.5c0,4.3-0.5,7.7-1.5,10.2
		s-2.7,4.7-5.2,6.4l7.7,30.3h-10.6L298,89h-4.7L293.3,116.9L293.3,116.9z M296.4,80.1c1.7,0,2.9-0.1,3.7-0.4
		c0.8-0.3,1.4-0.9,1.9-1.7c0.5-0.8,0.9-1.9,1.2-3.3c0.3-1.4,0.4-2.9,0.4-4.6c0-1.9-0.2-3.5-0.5-5c-0.4-1.5-0.8-2.6-1.4-3.3
		c-0.5-0.7-1.2-1.1-1.9-1.3c-0.8-0.2-1.9-0.3-3.4-0.3h-3.1v20L296.4,80.1L296.4,80.1z"/>
	<path id="XMLID_35_" class="st0" d="M341.7,102.3l-2.3,14.6h-9.8l10.8-66.1h12.9l11.5,66.1h-10.2l-2.3-14.6
		C352.3,102.3,341.7,102.3,341.7,102.3z M346.8,66.6L343,93h7.7L346.8,66.6z"/>
	<path id="XMLID_33_" class="st0" d="M414.6,116.9V71.2l-9.4,45.7h-4.4l-9.9-45.7v45.7h-9.3V50.7h13.3l8.2,40.3l7.5-40.3H424v66.1
		h-9.4V116.9z"/>
	<path id="XMLID_30_" class="st0" d="M452.9,102.3l-2.3,14.6h-9.8l10.8-66.1h12.9l11.5,66.1h-10.2l-2.3-14.6
		C463.5,102.3,452.9,102.3,452.9,102.3z M458.1,66.6L454.3,93h7.7L458.1,66.6z"/>
</g>
</svg>
