<svg xmlns="http://www.w3.org/2000/svg" xmlns:xlink="http://www.w3.org/1999/xlink" width="425" height="422" viewBox="0 0 425 422">
    <defs>
        <path id="a" d="M.331 421.111h432.843V.681H.331z"/>
    </defs>
    <g fill="none" fill-rule="evenodd">
        <mask id="b" fill="#fff">
            <use xlink:href="#a"/>
        </mask>
        <path stroke="#FFF" stroke-linecap="round" stroke-linejoin="round" stroke-width="5" d="M248.655 205.63c0 7.214-5.938 13.061-13.26 13.061-7.325 0-13.263-5.847-13.263-13.062 0-7.214 5.938-13.061 13.262-13.061 7.323 0 13.261 5.847 13.261 13.061zM181.647 59.866c0 7.214-5.938 13.062-13.261 13.062-7.324 0-13.263-5.848-13.263-13.062 0-7.214 5.939-13.062 13.263-13.062 7.323 0 13.261 5.848 13.261 13.062zM225.58 425.843c0-7.214 5.94-13.061 13.263-13.061 7.325 0 13.263 5.847 13.263 13.06M119.73 225.222c0-7.215 5.94-13.062 13.263-13.062 7.324 0 13.262 5.847 13.262 13.062M-19.794 119.17c0-7.215 5.912-13.062 13.203-13.062 7.29 0 13.202 5.847 13.202 13.061M314.494 140.559c-7.324 0-13.262-5.823-13.262-13.004 0-7.18 5.938-13.002 13.262-13.002M137.467 29.894c-7.325 0-13.262-5.823-13.262-13.003s5.937-13.003 13.262-13.003M1.789 307.922c0 7.214-5.938 13.063-13.262 13.063-7.324 0-13.262-5.849-13.262-13.063s5.938-13.06 13.262-13.06c7.324 0 13.262 5.846 13.262 13.06zM410.75 322.84c0 7.214-5.937 13.062-13.26 13.062-7.325 0-13.263-5.848-13.263-13.062 0-7.214 5.938-13.061 13.263-13.061 7.323 0 13.26 5.847 13.26 13.06zM374.067 140.546h26.38v-25.982h-26.38zM75.804 153.537h26.38v-25.982h-26.38zM74.48 319.413h26.38v-25.982H74.48zM374.067 445.294h26.378v-25.982h-26.378zM264.636 29.883h26.379V3.9h-26.379zM226.73 268.085c-5.759 0-4.766-10.058-12.115-10.058M250.958 268.085c-5.758 0-4.766-10.058-12.113-10.058M226.73 268.085c5.758 0 4.766-10.058 12.115-10.058M250.958 268.085c5.757 0 4.766-10.058 12.114-10.058M328.787 185.34c-5.758 0-4.766-10.059-12.113-10.059M353.016 185.34c-5.759 0-4.766-10.058-12.113-10.058M328.787 185.34c5.76 0 4.768-10.058 12.115-10.058M353.016 185.34c5.759 0 4.766-10.059 12.115-10.058M16.092 173.185c-5.759 0-4.766-10.058-12.114-10.058M-8.137 173.185c5.759 0 4.767-10.058 12.115-10.058M16.092 173.185c5.758 0 4.766-10.059 12.114-10.058M228.735 38.527c0 5.672-10.212 4.694-10.212 11.932M228.735 14.664c0 5.672-10.212 4.694-10.212 11.93M228.735 38.527c0-5.672-10.212-4.695-10.212-11.932M228.735 14.664c0-5.671-10.212-4.694-10.212-11.931M154.447 163.35c0 5.672-10.213 4.694-10.213 11.931M154.447 139.487c0 5.672-10.213 4.694-10.213 11.93M154.447 163.35c0-5.672-10.213-4.695-10.213-11.932M154.447 139.487c0-5.671-10.213-4.694-10.213-11.931M355.82 362.75c0 5.672-10.212 4.695-10.212 11.933M355.82 338.887c0 5.672-10.212 4.695-10.212 11.93M355.82 362.75c0-5.671-10.212-4.694-10.212-11.932M355.82 338.887c0-5.67-10.212-4.694-10.212-11.93M105.966 381.555c0 5.672-10.212 4.695-10.212 11.931M105.966 357.692c0 5.672-10.212 4.695-10.212 11.931M105.966 381.555c0-5.671-10.212-4.695-10.212-11.932M105.966 357.692c0-5.671-10.212-4.694-10.212-11.932M255.76 294.861h29.893M257.995 72.928h29.893M375.827 6.482h29.893M157.816 388.425l21.137-20.818M-17.16 27.301L3.977 6.483M390.772 240.724l21.138-20.818M234.056 364.567c-2.443 1.512-5.668.79-7.201-1.616-1.538-2.406-.804-5.58 1.637-7.092 2.439-1.51 5.667-.79 7.2 1.615 1.537 2.403.8 5.58-1.636 7.093zM192.894 223.045c-2.443 1.512-5.667.79-7.201-1.617-1.537-2.405-.804-5.579 1.637-7.09 2.44-1.512 5.667-.79 7.2 1.615 1.538 2.403.802 5.58-1.636 7.092zM4.638 266.566c-2.443 1.512-5.667.79-7.201-1.617-1.537-2.405-.803-5.579 1.638-7.091 2.439-1.51 5.666-.79 7.2 1.615 1.537 2.403.801 5.58-1.637 7.093zM58.162 104.632c-2.444 1.512-5.667.79-7.202-1.616-1.536-2.405-.803-5.58 1.638-7.091 2.44-1.511 5.666-.79 7.2 1.615 1.537 2.403.801 5.58-1.636 7.092zM345.494 102.073c-2.443 1.512-5.666.79-7.201-1.616-1.536-2.405-.803-5.579 1.638-7.091 2.44-1.511 5.666-.789 7.2 1.615 1.538 2.404.802 5.58-1.637 7.092zM419.287 285.369c-2.444 1.512-5.667.79-7.202-1.616-1.536-2.406-.804-5.58 1.638-7.092 2.44-1.51 5.666-.789 7.201 1.615 1.537 2.404.801 5.581-1.637 7.093zM125 93.668l-13-11.832M113 94.654l12-12.818M140 274.103l-13-11.832M127 274.103l12-12.818M282 157.757l-13-11.832M269 158.743l12-12.818M344 297.766l-13-11.831M331 297.766l12-12.817M334 410.168l-13-11.832M321 411.154l12-12.818M219.24 112.392l-8.763-14.78-8.735 14.788L193 127.192l17.498-.015 17.502-.008zM189.24 295.785l-8.763-14.78-8.735 14.788L163 310.584l17.498-.015 17.502-.008zM290.24 351l-8.763-14.78-8.735 14.788L264 365.799l17.498-.015 17.502-.008zM347.587 236.143l4.413-16.27-16.496 4.373L319 228.615l12.09 11.895 12.087 11.901zM60.588 42.891L65 26.621l-16.496 4.373L32 35.363l12.09 11.894L56.178 59.16zM48.588 402.776L53 386.505l-16.496 4.373L20 395.248l12.09 11.892 12.088 11.902zM366.01 60.626L381 52.235l-14.998-8.366L351 35.495l.015 16.76.008 16.764z" mask="url(#b)"/>
        <path stroke="#fff" stroke-linecap="round" stroke-linejoin="round" stroke-width="5" d="M48.01 233.173L63 224.78l-14.998-8.365L33 208.042l.016 16.76.008 16.763z" mask="url(#b)"/>
    </g>
</svg>
