<svg xmlns="http://www.w3.org/2000/svg" xmlns:xlink="http://www.w3.org/1999/xlink" width="286" height="139" viewBox="0 0 286 139">
    <defs>
        <path id="a" d="M0 0h320v160H0z"/>
        <path id="c" d="M.999 296.407h332.446V0H.999z"/>
    </defs>
    <g fill="none" fill-rule="evenodd" transform="translate(-9 -21)">
        <mask id="b" fill="#fff">
            <use xlink:href="#a"/>
        </mask>
        <path d="M108 87l-9-8" mask="url(#b)"/>
        <path stroke="#FFF" stroke-linecap="round" stroke-linejoin="round" stroke-width="3" d="M100 88l8-9M214 130l-9-8M205 131l8-9M171.243 99.493L165.485 89l-5.74 10.499L154 110l11.499-.01 11.501-.006zM64.058 51L67 40l-10.997 2.956L45 45.91l8.06 8.043L61.12 62zM271.507 63.242L282 57.485l-10.499-5.74L261 46l.01 11.498.006 11.502z" mask="url(#b)"/>
        <g mask="url(#b)">
            <g transform="translate(3 13)">
                <path stroke="#FFF" stroke-linecap="round" stroke-linejoin="round" stroke-width="3" d="M188.63 148.83c0 4.94-3.985 8.945-8.9 8.945-4.914 0-8.899-4.005-8.899-8.946 0-4.94 3.985-8.945 8.9-8.945 4.914 0 8.898 4.005 8.898 8.945zM143.665 49c0 4.941-3.984 8.946-8.899 8.946-4.914 0-8.9-4.005-8.9-8.946 0-4.94 3.986-8.945 8.9-8.945 4.915 0 8.9 4.005 8.9 8.945zM8.494 89.615c0-4.94 3.967-8.945 8.859-8.945 4.892 0 8.859 4.005 8.859 8.945M232.809 104.264c-4.915 0-8.9-3.987-8.9-8.905 0-4.918 3.985-8.905 8.9-8.905M114.02 28.474c-4.916 0-8.9-3.988-8.9-8.906 0-4.918 3.984-8.905 8.9-8.905"/>
                <mask id="d" fill="#fff">
                    <use xlink:href="#c"/>
                </mask>
                <path stroke="#FFF" stroke-linecap="round" stroke-linejoin="round" stroke-width="3" d="M272.783 104.256h17.702V86.46h-17.702zM72.642 113.153h17.701V95.36H72.642zM199.353 28.466h17.7V10.67h-17.7zM242.4 134.934c-3.864 0-3.198-6.889-8.129-6.889M258.658 134.934c-3.864 0-3.198-6.888-8.129-6.888M242.4 134.934c3.864 0 3.2-6.888 8.13-6.888M258.658 134.934c3.864 0 3.198-6.889 8.13-6.888M16.316 126.61c-3.865 0-3.199-6.89-8.13-6.89M32.574 126.61c-3.865 0-3.199-6.89-8.129-6.89M16.316 126.61c3.864 0 3.198-6.89 8.13-6.89M32.574 126.61c3.863-.001 3.198-6.89 8.128-6.89M175.262 34.386c0 3.885-6.852 3.215-6.852 8.172M175.262 18.043c0 3.884-6.852 3.215-6.852 8.17M175.262 34.386c0-3.884-6.852-3.215-6.852-8.172M175.262 18.043c0-3.884-6.852-3.215-6.852-8.171M125.413 119.874c0 3.884-6.853 3.214-6.853 8.171M125.413 103.53c0 3.885-6.853 3.215-6.853 8.171M125.413 119.874c0-3.885-6.853-3.216-6.853-8.173M125.413 103.53c0-3.883-6.853-3.215-6.853-8.171M194.896 57.946h20.06M60.803 79.66a3.493 3.493 0 0 1-4.832-1.108 3.531 3.531 0 0 1 1.1-4.856 3.494 3.494 0 0 1 4.83 1.106 3.534 3.534 0 0 1-1.098 4.857zM253.61 77.907a3.493 3.493 0 0 1-4.832-1.107 3.532 3.532 0 0 1 1.1-4.856 3.495 3.495 0 0 1 4.831 1.106 3.534 3.534 0 0 1-1.098 4.857z" mask="url(#d)"/>
            </g>
        </g>
    </g>
</svg>
