<svg xmlns="http://www.w3.org/2000/svg" xmlns:xlink="http://www.w3.org/1999/xlink" width="48" height="48" viewBox="0 0 48 48">
    <defs>
        <path id="a" d="M0 0h24v23H0z"/>
    </defs>
    <g fill="none" fill-rule="evenodd">
        <circle cx="24" cy="24" r="22.5" stroke="#FFF" stroke-width="3"/>
        <g transform="translate(12 12)">
            <mask id="b" fill="#fff">
                <use xlink:href="#a"/>
            </mask>
            <path fill="#FFF" d="M23.76 17.545v-.006c-.005-.005-.01-.005-.022-.017h-.005c-.287-.187-.58-.215-.761-.283-.006 0-.011 0-.011-.006-1.247-.402-2.322-1.274-3.127-2.339-.447-.594-.822-1.234-1.07-1.92v-.01c-.1-.295-.105-.624.039-.822 0 0 .005 0 .005-.006.226-.328.64-.538 1.075-.702h.006c.491-.175 1.02-.374 1.456-.77.005 0 .005-.006.011-.006a.883.883 0 0 0 .21-.277c.01-.028.027-.062.032-.102a.566.566 0 0 0-.027-.39v-.007c-.127-.26-.342-.402-.507-.498h-.006a1.028 1.028 0 0 0-.871-.08h-.006c-.298.091-.546.205-.772.233-.005 0-.01 0-.016.006-.32.056-.634.068-.877-.023-.006-.034-.006-.108-.017-.198h.006c-.022-.544.028-1.105.033-1.688v-.006c.028-.883.06-1.789-.066-2.707V4.91C18.19 3.364 17.225 2.033 16 1.15 15.113.504 14.055.147 12.979.045 12.61.011 12.251 0 11.893 0c-1.45.011-2.956.402-4.13 1.348a6.83 6.83 0 0 0-2.014 2.695v.006c-.42 1.076-.38 2.226-.325 3.29.033.748.115 1.473.05 2.164-.006.023-.006.034-.012.045-.325.063-.683.04-1.036-.028H4.42c-.243-.04-.502-.142-.794-.227-.006 0-.011 0-.016-.005a.93.93 0 0 0-.773.18c-.005 0-.01 0-.01.007-.006.005-.012.005-.012.01-.176.114-.413.312-.424.652-.006.023 0 .04 0 .063.005 0 0 .005.005.005a.763.763 0 0 0 .265.442c.11.096.21.158.27.21.006 0 .011.005.017.01.53.363 1.114.521 1.627.725.352.16.656.403.727.714.089.39-.077.844-.286 1.28v.006a7.817 7.817 0 0 1-2.471 2.905 5.86 5.86 0 0 1-1.814.85c-.006 0-.017.005-.028.01-.132.052-.446.08-.645.386-.011.023-.022.045-.033.074-.066.192.011.402.105.52a.852.852 0 0 0 .275.221c.006 0 .011.006.017.006.54.323 1.136.459 1.676.6.006 0 .006.006.006.006.391.085.755.136 1.048.267.01.022.044.124.11.294.1.306.144.662.254 1.042a.317.317 0 0 0 .226.21c.248.056.38-.03.402-.034h.033c.905-.165 1.815-.307 2.647-.097.872.238 1.633.855 2.488 1.382v.006c.568.362 1.224.719 1.985.747h.005c.574.034 1.131-.006 1.682-.04h.012c.468-.045.92-.209 1.323-.464.006-.005.011-.011.017-.011.899-.527 1.693-1.156 2.57-1.552h.005c.281-.102.64-.096 1.032-.124h.01c.729-.023 1.451.017 2.173.113a.15.15 0 0 0 .072 0c.1-.011.198-.08.248-.142.055-.062.066-.12.077-.159.022-.073.039-.107.006-.045.011-.023.022-.04.027-.062.133-.447.204-.85.42-1.098.093-.097.259-.142.446-.142h.039c.628-.074 1.191-.306 1.726-.499.006-.005.017-.005.022-.005.199-.091.496-.193.7-.482v-.005a.514.514 0 0 0-.149-.725" mask="url(#b)"/>
        </g>
    </g>
</svg>
