<svg xmlns="http://www.w3.org/2000/svg" width="48" height="48" viewBox="0 0 48 48">
    <path fill="#00DBB8" fill-rule="nonzero" d="M11.097 28.875a2.096 2.096 0 0 1-1.894-2.994c.28-.592 2.879-5.814 7.717-6.714 2.822-.522 5.636.533 8.372 3.14 1.808 1.721 3.504 2.457 5.037 2.189 2.441-.427 4.4-3.346 4.895-4.335a2.1 2.1 0 0 1 3.755 1.877c-.116.233-2.909 5.716-7.927 6.593-2.919.513-5.83-.595-8.655-3.285-1.702-1.62-3.284-2.312-4.7-2.053-2.33.425-4.185 3.313-4.704 4.39a2.105 2.105 0 0 1-1.896 1.192z"/>
</svg>
