<svg xmlns="http://www.w3.org/2000/svg" width="48" height="48" viewBox="0 0 48 48">
    <g fill="none" fill-rule="evenodd">
        <circle cx="24" cy="24" r="22.5" stroke="#FFF" stroke-width="3"/>
        <path fill="#FFF" d="M13.892 31.462a12.732 12.732 0 0 0 6.895 2.021c8.352 0 13.07-7.054 12.786-13.381a9.121 9.121 0 0 0 2.245-2.329 8.99 8.99 0 0 1-2.584.709 4.506 4.506 0 0 0 1.977-2.489c-.869.515-1.831.89-2.855 1.092a4.496 4.496 0 0 0-3.284-1.42c-2.903 0-5.037 2.71-4.382 5.523a12.766 12.766 0 0 1-9.271-4.7 4.503 4.503 0 0 0 1.392 6.006 4.487 4.487 0 0 1-2.038-.563c-.049 2.084 1.445 4.033 3.608 4.468a4.498 4.498 0 0 1-2.031.076 4.501 4.501 0 0 0 4.202 3.124 9.04 9.04 0 0 1-6.66 1.863"/>
    </g>
</svg>
