<svg xmlns="http://www.w3.org/2000/svg" width="264" height="264" viewBox="0 0 264 264">
    <g fill="none" fill-rule="evenodd">
        <g stroke="#00DBB8" stroke-linecap="round" stroke-linejoin="round" stroke-width="4">
            <path d="M137.537 48.254C130.627 48.254 131.818 36 123 36M166.61 48.254c-6.91 0-5.72-12.254-14.536-12.254M137.537 48.254c6.91 0 5.719-12.254 14.537-12.254M166.61 48.254c6.907 0 5.718-12.254 14.534-12.254M202.815 81.207l8.205-4.744-8.21-4.73L194.6 67l.008 9.475.004 9.477zM42.804 222.207l-8.205-4.744 8.21-4.73 8.21-4.733-.008 9.475-.004 9.477zM217.904 213.683c-6.57 0-11.895-5.303-11.895-11.842 0-6.539 5.325-11.841 11.895-11.841M189.252 158.775L174 144.47M174.47 159.252L188.779 144M46 157.654h18.654V139H46zM75.605 87.57a6.265 6.265 0 0 1-8.64-1.969 6.263 6.263 0 0 1 1.964-8.639 6.268 6.268 0 0 1 6.676 10.608zM74 192h35.869"/>
        </g>
    </g>
</svg>
