<svg xmlns="http://www.w3.org/2000/svg" width="264" height="264" viewBox="0 0 264 264">
    <g fill="none" fill-rule="evenodd">
        <g stroke="#00DBB8" stroke-linecap="round" stroke-linejoin="round" stroke-width="4">
            <path d="M137.537 214.746c-6.91 0-5.719 12.254-14.537 12.254M166.61 214.746c-6.91 0-5.72 12.254-14.536 12.254M137.537 214.746c6.91 0 5.719 12.254 14.537 12.254M166.61 214.746c6.907 0 5.718 12.254 14.534 12.254M202.815 181.793l8.205 4.744-8.21 4.73L194.6 196l.008-9.475.004-9.477zM42.804 40.793l-8.205 4.744 8.21 4.73L51.019 55l-.008-9.475-.004-9.477zM217.904 49.317c-6.57 0-11.895 5.303-11.895 11.842 0 6.539 5.325 11.841 11.895 11.841M189.252 104.225L174 118.53M174.47 103.748L188.779 119M46 105.346h18.654V124H46zM75.605 175.43a6.265 6.265 0 0 0-8.64 1.969 6.263 6.263 0 0 0 1.964 8.639 6.268 6.268 0 0 0 6.676-10.608zM74 71h35.869"/>
        </g>
    </g>
</svg>
